<svg width="417pt" height="35pt" viewBox="0 0 417 35" xmlns="http://www.w3.org/2000/svg" style=""><g id="fontsvg1640039040989" stroke-linecap="round" fill-rule="evenodd" fill="rgba(205, 199, 110, 0.90)" stroke="#000000"><path d="M 316.68 0 L 321.64 0 L 321.48 1.2 L 322.84 1.2 L 319.04 28.44 L 314.08 28.44 L 314.24 27.24 L 312.88 27.24 L 315.16 10.92 L 306.84 19.92 L 305.88 18.48 L 305.64 18.72 L 299.32 9.12 L 296.64 28.44 L 291.72 28.44 L 291.88 27.24 L 290.52 27.24 L 294.32 0 L 298.72 0 L 299.52 1.2 L 299.92 1.2 L 307.48 12.28 L 316.28 2.96 L 316.68 0 Z M 320.72 0.8 L 317.4 0.8 L 317.04 3.32 L 307.2 13.76 L 298.32 0.8 L 295.04 0.8 L 291.44 26.44 L 294.72 26.44 L 297.72 5.16 L 305.76 17.4 L 316.76 5.48 L 313.8 26.44 L 317.12 26.44 L 320.72 0.8 Z M 126.64 26.44 L 129.56 5.72 L 143.16 5.72 A 1.685 1.685 0 0 1 143.366 5.732 Q 143.549 5.754 143.68 5.82 Q 143.88 5.92 143.96 6.12 Q 144.025 6.282 143.959 6.443 A 0.562 0.562 0 0 1 143.92 6.52 A 0.986 0.986 0 0 1 143.802 6.676 Q 143.739 6.745 143.658 6.813 A 2.184 2.184 0 0 1 143.52 6.92 L 128.92 16.44 L 139.16 26.44 L 144.96 26.44 L 133.16 15.32 L 145.64 7.24 A 5.903 5.903 0 0 0 146.75 6.444 A 4.676 4.676 0 0 0 147.58 5.44 A 4.504 4.504 0 0 0 147.988 4.595 Q 148.216 3.95 148.18 3.32 Q 148.12 2.28 147.3 1.54 A 2.542 2.542 0 0 0 146.427 1.037 Q 145.752 0.8 144.8 0.8 L 126.96 0.8 L 123.36 26.44 L 126.64 26.44 Z M 18.12 20.76 L 6.04 9.04 A 4.085 4.085 0 0 1 5.539 8.61 A 3.011 3.011 0 0 1 5.12 8.08 L 4.84 7.84 A 4.415 4.415 0 0 1 3.963 6.993 A 3.783 3.783 0 0 1 3.5 6.22 A 4.882 4.882 0 0 1 3.15 5.113 A 4.145 4.145 0 0 1 3.08 4.36 Q 3.08 3.52 3.4 2.74 Q 3.72 1.96 4.34 1.36 Q 4.96 0.76 5.9 0.38 Q 6.84 0 8.08 0 L 26.76 0 L 26.6 1.2 L 27.96 1.2 L 27.08 7.72 L 9.6 7.72 L 21.6 19.44 Q 21.92 19.64 22.18 19.9 Q 22.44 20.16 22.64 20.48 L 22.8 20.64 A 4.982 4.982 0 0 1 23.669 21.45 A 4.137 4.137 0 0 1 24.18 22.22 A 4.062 4.062 0 0 1 24.636 23.901 A 3.976 3.976 0 0 1 24.64 24.08 Q 24.64 24.92 24.32 25.7 Q 24 26.48 23.36 27.08 Q 22.72 27.68 21.78 28.06 Q 20.84 28.44 19.6 28.44 L 1.2 28.44 L 1.36 27.24 L 0 27.24 L 0.88 20.76 L 18.12 20.76 Z M 38.32 9.6 L 57.92 9.6 A 4.533 4.533 0 0 1 59.09 9.741 A 2.904 2.904 0 0 1 60.96 11.2 A 2.981 2.981 0 0 1 62.38 12.86 Q 62.72 13.757 62.72 15.04 Q 62.72 15.88 62.6 16.64 L 60.96 28.44 L 55.4 28.44 L 55.56 27.24 L 54.2 27.24 L 55.92 14.88 L 53.04 14.88 L 51.16 28.44 L 45.6 28.44 L 45.76 27.24 L 44.4 27.24 L 46.12 14.88 L 43.24 14.88 L 41.36 28.36 L 37.08 28.36 L 37.24 27.16 L 35.88 27.16 L 38.32 9.6 Z M 18.12 21.56 L 1.6 21.56 L 0.92 26.44 L 18.4 26.44 A 6.21 6.21 0 0 0 19.511 26.347 Q 20.137 26.233 20.639 25.98 A 3.339 3.339 0 0 0 21.1 25.7 A 4.21 4.21 0 0 0 21.911 24.94 A 3.371 3.371 0 0 0 22.48 23.92 Q 22.818 22.945 22.522 21.935 A 3.785 3.785 0 0 0 22.48 21.8 A 3.41 3.41 0 0 0 21.417 20.258 A 4.372 4.372 0 0 0 21.08 20 L 7.68 6.92 A 1.339 1.339 0 0 1 7.545 6.811 Q 7.405 6.68 7.367 6.55 A 0.364 0.364 0 0 1 7.36 6.52 Q 7.33 6.368 7.392 6.216 A 0.703 0.703 0 0 1 7.44 6.12 A 0.707 0.707 0 0 1 7.714 5.861 A 0.906 0.906 0 0 1 7.8 5.82 A 1.258 1.258 0 0 1 8.086 5.741 A 1.735 1.735 0 0 1 8.36 5.72 L 25.16 5.72 L 25.84 0.8 L 8.08 0.8 A 6.21 6.21 0 0 0 6.969 0.894 Q 6.343 1.007 5.841 1.26 A 3.339 3.339 0 0 0 5.38 1.54 A 4.12 4.12 0 0 0 4.595 2.272 A 3.253 3.253 0 0 0 4.02 3.32 Q 3.696 4.311 3.99 5.339 A 3.968 3.968 0 0 0 4.02 5.44 Q 4.36 6.52 5.4 7.24 L 18.84 20.32 Q 18.99 20.445 19.062 20.571 A 0.496 0.496 0 0 1 19.12 20.72 Q 19.15 20.872 19.088 21.024 A 0.703 0.703 0 0 1 19.04 21.12 A 0.796 0.796 0 0 1 18.806 21.366 A 1.034 1.034 0 0 1 18.68 21.44 A 1.118 1.118 0 0 1 18.353 21.542 A 1.487 1.487 0 0 1 18.12 21.56 Z M 147 27.24 L 146.92 27.24 L 148.2 28.44 L 140.04 28.44 L 129.92 18.6 L 128.56 28.44 L 123.64 28.44 L 123.8 27.24 L 122.44 27.24 L 126.24 0 L 144.8 0 A 7.528 7.528 0 0 1 145.773 0.059 Q 146.258 0.122 146.662 0.254 A 3.446 3.446 0 0 1 147.24 0.5 A 3.738 3.738 0 0 1 148.019 1.055 A 3.003 3.003 0 0 1 148.6 1.8 A 3.002 3.002 0 0 1 149.469 2.505 A 2.815 2.815 0 0 1 149.8 3 Q 150.2 3.76 150.2 4.64 A 3.887 3.887 0 0 1 149.98 5.901 Q 149.786 6.469 149.42 7.06 A 5.886 5.886 0 0 1 147.621 8.886 A 7.072 7.072 0 0 1 147.24 9.12 L 147.28 9.12 L 135.72 16.6 L 147 27.24 Z M 57.92 10.4 L 39.04 10.4 L 36.8 26.36 L 39.44 26.36 L 41.36 12.88 L 46.2 12.88 A 1.507 1.507 0 0 1 46.549 12.917 Q 47.24 13.082 47.082 13.989 A 2.427 2.427 0 0 1 47.08 14 L 45.32 26.44 L 49.24 26.44 L 51.16 12.88 L 56 12.88 A 1.393 1.393 0 0 1 56.351 12.92 Q 57.01 13.092 56.88 14 L 55.12 26.44 L 59.04 26.44 L 60.6 15.32 A 13.305 13.305 0 0 0 60.671 14.649 Q 61.005 10.4 57.92 10.4 Z M 189 9.6 L 188.84 10.8 L 190.2 10.8 L 189.68 14.88 L 177.32 14.88 A 0.339 0.339 0 0 0 177.016 15.048 Q 176.951 15.152 176.92 15.32 L 176.84 15.8 L 188.16 15.8 L 187.96 17 L 189.36 17 L 188.52 22.88 A 11.932 11.932 0 0 1 188.013 25.012 Q 187.634 26.104 187.056 26.848 A 4.042 4.042 0 0 1 183.68 28.44 L 170.8 28.44 L 170.96 27.24 L 169.6 27.24 L 170.48 20.76 L 182.2 20.76 A 2.538 2.538 0 0 0 182.356 20.756 Q 182.588 20.741 182.68 20.68 L 171.92 20.68 L 172.08 19.48 L 170.72 19.48 L 171.28 15.2 A 11.921 11.921 0 0 1 171.773 13.052 Q 172.948 9.6 176.12 9.6 L 189 9.6 Z M 187.24 16.6 L 174.56 16.6 L 174.92 14 Q 175.057 13.04 175.841 12.903 A 1.62 1.62 0 0 1 176.12 12.88 L 187.76 12.88 L 188.08 10.4 L 176.12 10.4 A 3.355 3.355 0 0 0 173.068 12.178 Q 172.674 12.841 172.411 13.753 A 11.83 11.83 0 0 0 172.08 15.32 L 171.64 18.68 L 184.28 18.68 L 184.08 20.04 A 2.241 2.241 0 0 1 183.838 20.74 Q 183.484 21.367 182.714 21.515 A 2.733 2.733 0 0 1 182.2 21.56 L 171.2 21.56 L 170.52 26.44 L 182.48 26.44 A 3.361 3.361 0 0 0 185.533 24.674 Q 185.938 23.998 186.204 23.063 A 11.756 11.756 0 0 0 186.52 21.56 L 187.24 16.6 Z M 345.16 9.6 L 356.56 9.6 A 4.533 4.533 0 0 1 357.73 9.741 A 2.904 2.904 0 0 1 359.6 11.2 A 2.981 2.981 0 0 1 361.02 12.86 Q 361.36 13.757 361.36 15.04 Q 361.36 15.88 361.24 16.64 L 359.6 28.44 L 354.04 28.44 L 354.2 27.24 L 352.84 27.24 L 354.56 14.88 L 350.08 14.88 L 348.2 28.36 L 343.92 28.36 L 344.08 27.16 L 342.72 27.16 L 345.16 9.6 Z M 111.68 28.44 L 99 28.44 A 4.533 4.533 0 0 1 97.83 28.299 A 2.904 2.904 0 0 1 95.96 26.84 A 2.981 2.981 0 0 1 94.54 25.18 Q 94.2 24.283 94.2 23 A 10.433 10.433 0 0 1 94.302 21.565 A 11.514 11.514 0 0 1 94.32 21.44 L 95.96 9.6 L 108.64 9.6 A 4.533 4.533 0 0 1 109.81 9.741 A 2.904 2.904 0 0 1 111.68 11.2 A 2.981 2.981 0 0 1 113.1 12.86 Q 113.44 13.757 113.44 15.04 Q 113.44 15.88 113.32 16.64 L 112.92 19.6 L 100.2 19.6 L 100.04 20.76 L 111.36 20.76 L 111.2 21.96 L 112.56 21.96 L 111.68 28.44 Z M 166.84 28.44 L 154.16 28.44 A 4.533 4.533 0 0 1 152.99 28.299 A 2.904 2.904 0 0 1 151.12 26.84 A 2.981 2.981 0 0 1 149.7 25.18 Q 149.36 24.283 149.36 23 A 10.433 10.433 0 0 1 149.462 21.565 A 11.514 11.514 0 0 1 149.48 21.44 L 151.12 9.6 L 163.8 9.6 A 4.533 4.533 0 0 1 164.97 9.741 A 2.904 2.904 0 0 1 166.84 11.2 A 2.981 2.981 0 0 1 168.26 12.86 Q 168.6 13.757 168.6 15.04 Q 168.6 15.88 168.48 16.64 L 168.08 19.6 L 155.36 19.6 L 155.2 20.76 L 166.52 20.76 L 166.36 21.96 L 167.72 21.96 L 166.84 28.44 Z M 279.76 28.44 L 267.08 28.44 A 4.533 4.533 0 0 1 265.91 28.299 A 2.904 2.904 0 0 1 264.04 26.84 A 2.981 2.981 0 0 1 262.62 25.18 Q 262.28 24.283 262.28 23 A 10.433 10.433 0 0 1 262.382 21.565 A 11.514 11.514 0 0 1 262.4 21.44 L 264.04 9.6 L 276.72 9.6 A 4.533 4.533 0 0 1 277.89 9.741 A 2.904 2.904 0 0 1 279.76 11.2 A 2.981 2.981 0 0 1 281.18 12.86 Q 281.52 13.757 281.52 15.04 Q 281.52 15.88 281.4 16.64 L 281 19.6 L 268.28 19.6 L 268.12 20.76 L 279.44 20.76 L 279.28 21.96 L 280.64 21.96 L 279.76 28.44 Z M 228.96 28.44 L 216.92 28.44 A 4.533 4.533 0 0 1 215.75 28.299 A 2.904 2.904 0 0 1 213.88 26.84 A 2.981 2.981 0 0 1 212.46 25.18 Q 212.12 24.283 212.12 23 A 10.433 10.433 0 0 1 212.222 21.565 A 11.514 11.514 0 0 1 212.24 21.44 L 213.88 9.6 L 218.16 9.6 L 218 10.8 L 219.36 10.8 L 217.96 20.76 L 224.36 20.76 L 225.92 9.6 L 230.2 9.6 L 230.04 10.8 L 231.4 10.8 L 228.96 28.44 Z M 356.56 10.4 L 345.88 10.4 L 343.64 26.36 L 346.28 26.36 L 348.2 12.88 L 354.64 12.88 A 1.507 1.507 0 0 1 354.989 12.917 Q 355.68 13.082 355.522 13.989 A 2.427 2.427 0 0 1 355.52 14 L 353.76 26.44 L 357.68 26.44 L 359.24 15.32 A 13.305 13.305 0 0 0 359.311 14.649 Q 359.645 10.4 356.56 10.4 Z M 81.88 28.44 L 69.16 28.44 L 68.32 34.84 L 64.04 34.84 L 64.2 33.64 L 62.84 33.64 L 66.16 9.6 L 78.84 9.6 A 4.533 4.533 0 0 1 80.01 9.741 A 2.904 2.904 0 0 1 81.88 11.2 A 2.981 2.981 0 0 1 83.3 12.86 Q 83.64 13.757 83.64 15.04 Q 83.64 15.88 83.52 16.64 L 81.88 28.44 Z M 97.8 26.44 L 109.76 26.44 L 110.44 21.56 L 99.44 21.56 Q 97.84 21.56 97.96 20.04 L 98.32 17.6 L 111 17.6 L 111.32 15.32 A 13.305 13.305 0 0 0 111.391 14.649 Q 111.725 10.4 108.64 10.4 L 96.68 10.4 L 95.12 21.56 Q 94.48 26.44 97.8 26.44 Z M 152.96 26.44 L 164.92 26.44 L 165.6 21.56 L 154.6 21.56 Q 153 21.56 153.12 20.04 L 153.48 17.6 L 166.16 17.6 L 166.48 15.32 A 13.305 13.305 0 0 0 166.551 14.649 Q 166.885 10.4 163.8 10.4 L 151.84 10.4 L 150.28 21.56 Q 149.64 26.44 152.96 26.44 Z M 265.88 26.44 L 277.84 26.44 L 278.52 21.56 L 267.52 21.56 Q 265.92 21.56 266.04 20.04 L 266.4 17.6 L 279.08 17.6 L 279.4 15.32 A 13.305 13.305 0 0 0 279.471 14.649 Q 279.805 10.4 276.72 10.4 L 264.76 10.4 L 263.2 21.56 Q 262.56 26.44 265.88 26.44 Z M 246.52 9.6 L 260.08 9.6 L 259.92 10.8 L 261.28 10.8 L 260.76 14.88 L 251.44 14.88 L 250.6 20.76 L 258.52 20.76 L 258.36 21.96 L 259.72 21.96 L 258.84 28.44 L 249.56 28.44 A 4.533 4.533 0 0 1 248.39 28.299 A 2.904 2.904 0 0 1 246.52 26.84 A 2.981 2.981 0 0 1 245.1 25.18 Q 244.76 24.283 244.76 23 A 10.433 10.433 0 0 1 244.862 21.565 A 11.514 11.514 0 0 1 244.88 21.44 L 246.52 9.6 Z M 215.72 26.44 L 227.04 26.44 L 229.28 10.4 L 226.64 10.4 L 225.08 21.56 L 217.36 21.56 Q 215.76 21.56 215.88 20.04 L 217.24 10.4 L 214.6 10.4 L 213.04 21.56 Q 212.4 26.44 215.72 26.44 Z M 380.84 28.44 L 376.72 28.44 A 4.533 4.533 0 0 1 375.55 28.299 A 2.904 2.904 0 0 1 373.68 26.84 A 2.981 2.981 0 0 1 372.26 25.18 Q 371.92 24.283 371.92 23 A 10.433 10.433 0 0 1 372.022 21.565 A 11.514 11.514 0 0 1 372.04 21.44 L 374.6 3.28 L 378.88 3.28 L 378.68 4.48 L 380.08 4.48 L 379.36 9.6 L 382.64 9.6 L 381.84 10.8 L 383.84 10.8 L 381.2 14.88 L 378.6 14.88 L 377.76 20.76 L 380.52 20.76 L 380.36 21.96 L 381.72 21.96 L 380.84 28.44 Z M 67.28 26.44 L 79.96 26.44 L 81.52 15.32 A 13.305 13.305 0 0 0 81.591 14.649 Q 81.925 10.4 78.84 10.4 L 66.88 10.4 L 63.76 32.84 L 66.4 32.84 L 67.28 26.44 Z M 259.16 10.4 L 247.24 10.4 L 245.68 21.56 Q 245.04 26.44 248.36 26.44 L 256.92 26.44 L 257.6 21.56 L 250 21.56 Q 248.4 21.56 248.52 20.04 L 249.56 12.88 L 258.84 12.88 L 259.16 10.4 Z M 88.44 0 L 93.36 0 L 93.2 1.2 L 94.56 1.2 L 90.76 28.36 L 85.84 28.36 L 86 27.16 L 84.64 27.16 L 88.44 0 Z M 208.68 28.44 L 196 28.44 A 4.533 4.533 0 0 1 194.83 28.299 A 2.904 2.904 0 0 1 192.96 26.84 A 2.981 2.981 0 0 1 191.54 25.18 Q 191.2 24.283 191.2 23 A 10.433 10.433 0 0 1 191.302 21.565 A 11.514 11.514 0 0 1 191.32 21.44 L 192.96 9.6 L 205.64 9.6 A 4.533 4.533 0 0 1 206.81 9.741 A 2.904 2.904 0 0 1 208.68 11.2 A 2.981 2.981 0 0 1 210.1 12.86 Q 210.44 13.757 210.44 15.04 Q 210.44 15.88 210.32 16.64 L 208.68 28.44 Z M 339.96 28.44 L 327.28 28.44 A 4.533 4.533 0 0 1 326.11 28.299 A 2.904 2.904 0 0 1 324.24 26.84 A 2.981 2.981 0 0 1 322.82 25.18 Q 322.48 24.283 322.48 23 A 10.433 10.433 0 0 1 322.582 21.565 A 11.514 11.514 0 0 1 322.6 21.44 L 324.24 9.6 L 336.92 9.6 A 4.533 4.533 0 0 1 338.09 9.741 A 2.904 2.904 0 0 1 339.96 11.2 A 2.981 2.981 0 0 1 341.38 12.86 Q 341.72 13.757 341.72 15.04 Q 341.72 15.88 341.6 16.64 L 339.96 28.44 Z M 401.76 28.44 L 389.08 28.44 A 4.533 4.533 0 0 1 387.91 28.299 A 2.904 2.904 0 0 1 386.04 26.84 A 2.981 2.981 0 0 1 384.62 25.18 Q 384.28 24.283 384.28 23 A 10.433 10.433 0 0 1 384.382 21.565 A 11.514 11.514 0 0 1 384.4 21.44 L 386.04 9.6 L 398.72 9.6 A 4.533 4.533 0 0 1 399.89 9.741 A 2.904 2.904 0 0 1 401.76 11.2 A 2.981 2.981 0 0 1 403.18 12.86 Q 403.52 13.757 403.52 15.04 Q 403.52 15.88 403.4 16.64 L 401.76 28.44 Z M 29.6 8.68 L 30.36 3.24 L 35.28 3.24 L 35.12 4.44 L 36.48 4.44 L 35.72 9.88 L 34 9.88 L 33.88 10.8 L 35.24 10.8 L 32.8 28.36 L 28.52 28.36 L 28.68 27.16 L 27.32 27.16 L 29.76 9.6 L 30.84 9.6 L 30.96 8.68 L 29.6 8.68 Z M 364.96 8.68 L 365.72 3.24 L 370.64 3.24 L 370.48 4.44 L 371.84 4.44 L 371.08 9.88 L 369.36 9.88 L 369.24 10.8 L 370.6 10.8 L 368.16 28.36 L 363.88 28.36 L 364.04 27.16 L 362.68 27.16 L 365.12 9.6 L 366.2 9.6 L 366.32 8.68 L 364.96 8.68 Z M 375.52 26.44 L 378.92 26.44 L 379.6 21.56 L 377.16 21.56 Q 375.56 21.56 375.68 20.04 L 376.72 12.88 L 379.56 12.88 L 381.16 10.4 L 377.04 10.4 L 377.96 4.08 L 375.32 4.08 L 372.84 21.56 Q 372.2 26.44 375.52 26.44 Z M 194.8 26.44 L 206.76 26.44 L 208.32 15.32 A 13.305 13.305 0 0 0 208.391 14.649 Q 208.725 10.4 205.64 10.4 L 193.68 10.4 L 192.12 21.56 Q 191.48 26.44 194.8 26.44 Z M 326.08 26.44 L 338.04 26.44 L 339.6 15.32 A 13.305 13.305 0 0 0 339.671 14.649 Q 340.005 10.4 336.92 10.4 L 324.96 10.4 L 323.4 21.56 Q 322.76 26.44 326.08 26.44 Z M 387.88 26.44 L 399.84 26.44 L 401.4 15.32 A 13.305 13.305 0 0 0 401.471 14.649 Q 401.805 10.4 398.72 10.4 L 386.76 10.4 L 385.2 21.56 Q 384.56 26.44 387.88 26.44 Z M 92.44 0.8 L 89.16 0.8 L 85.56 26.36 L 88.84 26.36 L 92.44 0.8 Z M 231.72 27.24 L 233.4 15.2 A 11.921 11.921 0 0 1 233.893 13.052 Q 235.068 9.6 238.24 9.6 L 242.56 9.6 L 242.4 10.8 L 243.76 10.8 L 242.88 17.32 L 239.72 17.32 A 1.494 1.494 0 0 0 239.309 17.372 Q 238.842 17.506 238.685 17.983 A 1.42 1.42 0 0 0 238.64 18.16 L 238.64 18.12 L 237.2 28.44 L 232.92 28.44 L 233.08 27.24 L 231.72 27.24 Z M 404.52 27.24 L 406.2 15.2 A 11.921 11.921 0 0 1 406.693 13.052 Q 407.868 9.6 411.04 9.6 L 415.36 9.6 L 415.2 10.8 L 416.56 10.8 L 415.68 17.32 L 412.52 17.32 A 1.494 1.494 0 0 0 412.109 17.372 Q 411.642 17.506 411.485 17.983 A 1.42 1.42 0 0 0 411.44 18.16 L 411.44 18.12 L 410 28.44 L 405.72 28.44 L 405.88 27.24 L 404.52 27.24 Z M 234.2 15.32 L 232.64 26.44 L 235.28 26.44 L 236.64 16.8 A 2.128 2.128 0 0 1 236.891 16.102 Q 237.231 15.531 237.944 15.377 A 2.729 2.729 0 0 1 238.52 15.32 L 240.96 15.32 L 241.64 10.4 L 238.24 10.4 A 3.355 3.355 0 0 0 235.188 12.178 Q 234.794 12.841 234.531 13.753 A 11.83 11.83 0 0 0 234.2 15.32 Z M 407 15.32 L 405.44 26.44 L 408.08 26.44 L 409.44 16.8 A 2.128 2.128 0 0 1 409.691 16.102 Q 410.031 15.531 410.744 15.377 A 2.729 2.729 0 0 1 411.32 15.32 L 413.76 15.32 L 414.44 10.4 L 411.04 10.4 A 3.355 3.355 0 0 0 407.988 12.178 Q 407.594 12.841 407.331 13.753 A 11.83 11.83 0 0 0 407 15.32 Z M 33.12 10.4 L 30.48 10.4 L 28.24 26.36 L 30.88 26.36 L 33.12 10.4 Z M 368.48 10.4 L 365.84 10.4 L 363.6 26.36 L 366.24 26.36 L 368.48 10.4 Z M 79.08 14 L 78 21.56 L 67.96 21.56 L 69.2 12.88 L 78.2 12.88 A 1.507 1.507 0 0 1 78.549 12.917 Q 79.24 13.082 79.082 13.989 A 2.427 2.427 0 0 1 79.08 14 Z M 194.96 20.04 L 196 12.88 L 205 12.88 A 1.507 1.507 0 0 1 205.349 12.917 Q 206.04 13.082 205.882 13.989 A 2.427 2.427 0 0 1 205.88 14 L 204.8 21.56 L 196.44 21.56 Q 194.84 21.56 194.96 20.04 Z M 326.24 20.04 L 327.28 12.88 L 336.28 12.88 A 1.507 1.507 0 0 1 336.629 12.917 Q 337.32 13.082 337.162 13.989 A 2.427 2.427 0 0 1 337.16 14 L 336.08 21.56 L 327.72 21.56 Q 326.12 21.56 326.24 20.04 Z M 388.04 20.04 L 389.08 12.88 L 398.08 12.88 A 1.507 1.507 0 0 1 398.429 12.917 Q 399.12 13.082 398.962 13.989 A 2.427 2.427 0 0 1 398.96 14 L 397.88 21.56 L 389.52 21.56 Q 387.92 21.56 388.04 20.04 Z M 131.44 7.72 L 130.52 14.44 L 140.8 7.72 L 131.44 7.72 Z M 108.56 16.24 L 98.52 16.24 L 99 12.88 L 108 12.88 A 1.507 1.507 0 0 1 108.349 12.917 Q 109.04 13.082 108.882 13.989 A 2.427 2.427 0 0 1 108.88 14 L 108.56 16.24 Z M 163.72 16.24 L 153.68 16.24 L 154.16 12.88 L 163.16 12.88 A 1.507 1.507 0 0 1 163.509 12.917 Q 164.2 13.082 164.042 13.989 A 2.427 2.427 0 0 1 164.04 14 L 163.72 16.24 Z M 276.64 16.24 L 266.6 16.24 L 267.08 12.88 L 276.08 12.88 A 1.507 1.507 0 0 1 276.429 12.917 Q 277.12 13.082 276.962 13.989 A 2.427 2.427 0 0 1 276.96 14 L 276.64 16.24 Z M 197.88 14.88 L 197.04 20.76 L 204.08 20.76 L 204.92 14.88 L 197.88 14.88 Z M 329.16 14.88 L 328.32 20.76 L 335.36 20.76 L 336.2 14.88 L 329.16 14.88 Z M 390.96 14.88 L 390.12 20.76 L 397.16 20.76 L 398 14.88 L 390.96 14.88 Z M 71.08 14.88 L 70.28 20.76 L 77.28 20.76 L 78.12 14.88 L 71.08 14.88 Z M 100.88 14.88 L 100.8 15.44 L 107.84 15.44 L 107.92 14.88 L 100.88 14.88 Z M 156.04 14.88 L 155.96 15.44 L 163 15.44 L 163.08 14.88 L 156.04 14.88 Z M 268.96 14.88 L 268.88 15.44 L 275.92 15.44 L 276 14.88 L 268.96 14.88 Z M 31.08 4.04 L 30.52 7.88 L 33.8 7.88 L 34.36 4.04 L 31.08 4.04 Z M 366.44 4.04 L 365.88 7.88 L 369.16 7.88 L 369.72 4.04 L 366.44 4.04 Z" vector-effect="non-scaling-stroke" class="TUGUFXed_0"></path></g><style data-made-with="vivus-instant">.TUGUFXed_0{stroke-dasharray:4128 4130;stroke-dashoffset:4129;animation:TUGUFXed_draw 5080ms ease-in-out 0ms forwards;}@keyframes TUGUFXed_draw{100%{stroke-dashoffset:0;}}@keyframes TUGUFXed_fade{0%{stroke-opacity:1;}95.6989247311828%{stroke-opacity:1;}100%{stroke-opacity:0;}}</style></svg>
